<mxfile host="app.diagrams.net" modified="2023-09-08T09:46:05.493Z" agent="Mozilla/5.0 (Windows NT 10.0; Win64; x64) AppleWebKit/537.36 (KHTML, like Gecko) Chrome/116.0.0.0 Safari/537.36" version="21.7.2" etag="9k72QRv_kIahonvQBK6c" type="github">
  <diagram name="페이지-1" id="F9603bOiJhwxSnAY44Lq">
    <mxGraphModel>
      <root>
        <mxCell id="0" />
        <mxCell id="1" parent="0" />
      </root>
    </mxGraphModel>
  </diagram>
</mxfile>
